<?xml version="1.0" encoding="UTF-8"?>
<svg width="190px" height="62px" viewBox="0 0 190 62" version="1.1" xmlns="http://www.w3.org/2000/svg" xmlns:xlink="http://www.w3.org/1999/xlink">
    <title>fdlp-logo</title>
    <defs>
        <polygon id="path-1" points="0.215005875 0.0102948705 9.71121034 0.0102948705 9.71121034 7.35440658 0.215005875 7.35440658"></polygon>
        <polygon id="path-3" points="0.0714453584 0.0102948705 9.56787309 0.0102948705 9.56787309 7.35440658 0.0714453584 7.35440658"></polygon>
        <polygon id="path-5" points="0.0966745006 0.00200940071 12.7404935 0.00200940071 12.7404935 7.35440658 0.0966745006 7.35440658"></polygon>
    </defs>
    <g id="Page-1" stroke="none" stroke-width="1" fill="none" fill-rule="evenodd">
        <g id="fdlp-logo" transform="translate(0.000000, 0.806000)">
            <path d="M48.3419389,0.247156287 L0.164547591,0.247156287 L0.164547591,20.7968508 C0.164547591,34.0993067 10.9501175,44.8853231 24.2536898,44.8853231 C37.5574853,44.8853231 48.3419389,34.0993067 48.3419389,20.7968508 L48.3419389,0.247156287" id="Fill-1" fill="#22387D"></path>
            <path d="M8.9413866,19.1489189 C8.49954172,19.1489189 2.08106933,19.1489189 2.08106933,19.1489189 C2.08106933,19.1489189 0.976792009,19.0379553 0.975898942,18.5936545 C0.96987074,13.7735488 0.98773208,13.9758284 0.98773208,13.9758284 C0.98773208,13.9758284 1.55215041,14.5786486 2.30299647,14.6116921 C2.9406463,14.6398237 9.4953114,14.6116921 9.4953114,14.6116921 C9.4953114,14.6116921 11.3001998,14.769765 10.9347121,16.1596005 C10.6181199,17.3574266 10.3401528,18.1243478 10.2827732,20.1714806 L10.2698237,20.1585311 C9.94474736,19.1676733 8.9413866,19.1489189 8.9413866,19.1489189" id="Fill-2" fill="#FFFFFE"></path>
            <path d="M1.62448884,25.9534195 C1.93304348,26.9219506 3.03575793,26.4640306 3.03575793,26.4640306 C3.03575793,26.4640306 7.82170388,25.3718096 8.92955347,25.163725 C10.0340541,24.9563102 10.8241951,25.4950529 10.8241951,25.4950529 C10.8241951,25.4950529 10.3247474,23.2688602 10.1586369,22.0096357 C9.99386604,20.7528672 8.23608696,20.600376 8.23608696,20.600376 C8.23608696,20.600376 2.86294947,20.6064042 2.04177438,20.600376 C1.17349001,20.592785 0.975898942,19.9354877 0.975898942,19.9354877 C0.975898942,19.9354877 0.99733255,23.9681316 1.62448884,25.9534195" id="Fill-3" fill="#FFFFFE"></path>
            <path d="M14.0595535,13.3721152 C13.2653937,14.9323032 12.2765452,16.2558284 11.8512221,18.0435253 C11.3294477,20.2360047 11.46698,22.3199765 12.0800705,24.4557462 C13.9046063,30.7956287 20.6113161,34.7950059 27.0045593,33.5301998 C26.8375558,33.9001528 26.5220799,34.1879436 26.3811986,34.5420447 C25.2981316,37.2866627 24.7658637,39.7557697 23.7729965,42.5403525 C23.612691,42.9913514 23.2597062,43.369342 22.9232432,43.7203173 C22.8524677,43.793772 22.9408813,43.9103173 23.020141,43.9141128 C26.1072503,44.1018801 29.1722562,43.6403878 32.0854407,42.5821034 C32.6494125,42.3793772 33.187262,42.1842421 33.7210928,41.9203408 C41.95651,37.8622444 47.3160282,29.6377673 47.4294477,21.1391187 C47.5223267,14.4015981 44.6296827,8.07689777 39.657309,3.28626322 C39.4586016,3.09157462 39.8144888,2.73479436 39.7070975,2.44745006 C39.657309,2.31415981 39.5083901,2.14447709 39.3929612,2.14447709 C36.1305875,2.13688602 32.9222444,2.1927027 29.6629965,2.1826557 C29.4680846,2.1826557 29.2390129,2.45057579 29.1316216,2.67518214 C29.0773678,2.79061105 29.0251234,3.05607521 29.2200353,3.07192714 C30.0097297,3.13980024 30.3341363,3.8879671 30.9963455,4.06457109 C31.6880259,4.24608696 32.230564,3.75132785 32.8782609,3.58544066 C33.343772,3.46487662 33.8644301,3.43830787 34.2848414,3.6952879 C34.7338308,3.97169213 34.6324677,4.74575793 34.1763337,4.94290247 C32.7054524,5.57497062 31.1126675,5.06413631 29.8324559,4.05095182 C29.6451351,3.90515864 29.3131375,3.62763807 29.0079318,3.7919624 C27.7408931,4.46980024 25.7024677,4.31306698 25.2894242,5.76162162 C24.996275,6.79110458 25.6662985,7.94293772 26.1184136,8.96817861 C26.6672033,8.18719154 27.5962162,8.06238543 28.437262,8.31802585 C29.9454289,8.77371328 31.1780846,9.58305523 32.2633843,10.6799647 C33.6226322,12.0552879 34.2879671,13.8606228 34.4404583,15.7244536 C34.8601998,20.7905993 33.429953,28.2937015 27.6752526,29.2061927 C17.9952996,30.7445006 15.5266392,24.8594125 15.5266392,21.9201058 C15.5266392,20.7700588 15.4958284,19.689671 15.7829495,18.6121857 C16.3739365,16.392691 17.6023502,14.5007286 19.6296122,13.3540306 C20.4552526,12.8878496 21.4273561,12.6656992 21.9846298,11.8195182 C22.4079436,11.1778496 22.3349354,10.4343713 22.1007286,9.75631022 C21.8841598,9.12982374 21.2837955,8.55647474 20.6952644,8.55647474 C14.0876851,8.55647474 6.7560517,8.5553584 1.00425382,8.5553584 C1.00425382,10.2153467 0.98773208,11.0081669 1.00425382,12.3707638 C1.01095182,13.0133255 1.4152879,13.3547004 2.11121034,13.3547004 L14.0320917,13.3547004" id="Fill-4" fill="#FFFFFE"></path>
            <path d="M7.66965922,35.4947239 C8.40755582,35.2399765 13.6712926,31.976933 14.1142538,31.8166275 C14.509436,31.6746298 14.8371915,31.627074 15.4147826,32.0365452 C16.9667098,33.1383666 18.5956639,34.2513514 19.3980846,34.2513514 C19.3980846,34.2513514 19.1478026,34.4447004 18.6499177,34.9142303 C18.1794947,35.3592009 13.5889072,40.2525382 13.5889072,40.2525382 C13.5889072,40.2525382 12.7596945,41.1105523 11.873772,40.530282 C11.873772,40.530282 8.85810811,38.4275558 6.42494712,35.7164277 C6.42494712,35.7164277 6.86857814,35.7722444 7.66965922,35.4947239" id="Fill-5" fill="#FFFFFE"></path>
            <path d="M13.8382961,41.6073208 C13.8382961,41.6073208 14.5574383,41.5807521 14.9454759,41.2221857 C15.3323972,40.8620564 20.1714806,35.1892949 20.1714806,35.1892949 C20.1714806,35.1892949 20.3572385,34.5840188 21.3063455,34.8017039 C22.4956874,35.0803408 24.4052879,35.1640658 24.7915394,35.1348179 C24.7915394,35.1348179 24.5417039,35.3592009 24.2652996,36.103349 C24.1041011,36.5389424 22.3856169,42.5758519 22.053396,43.0458284 C21.7213984,43.5175911 21.6664747,43.9319741 20.5579553,43.7379553 C18.4583549,43.3704583 16.7662162,42.8609636 13.8382961,41.6073208" id="Fill-6" fill="#FFFFFE"></path>
            <path d="M2.14403055,27.7149941 C2.14403055,27.7149941 2.72519389,27.880658 3.30680376,27.7699177 C4.44903643,27.5524559 8.84180964,26.4082139 9.66834313,26.3325264 C10.8581316,26.2206698 10.6368743,26.3870035 11.2716216,26.996745 C11.8179553,27.51651 12.9041481,29.8436193 13.1814454,30.0103995 C13.45651,30.1751704 13.6221739,30.4801528 14.0937133,30.5649941 C14.0937133,30.5649941 7.44661575,34.2721152 6.92886016,34.326369 C6.3773913,34.3819624 5.83663925,34.923161 5.27021152,34.1055582 C3.30680376,31.2564512 3.25277321,30.8398355 2.39319624,28.4615981 L2.14403055,27.7149941" id="Fill-7" fill="#FFFFFE"></path>
            <polygon id="Fill-8" fill="#C11E43" points="19.813584 25.4541951 29.1666745 25.4541951 29.1666745 16.7249119 19.813584 16.7249119"></polygon>
            <path d="M24.5144653,16.077215 C24.5144653,16.077215 23.0480494,14.0850059 20.6146651,14.1968625 L20.6146651,15.8296122 L19.0379553,15.8296122 L19.0379553,26.256839 L23.2413984,26.256839 C23.2413984,26.256839 23.43698,25.5928437 23.7953231,25.4541951 L19.8680611,25.4541951 L19.8680611,16.7680024 L20.5579553,16.7680024 L20.5579553,23.6292127 C20.5579553,23.6292127 22.7553467,23.5783079 24.0009518,25.4588837 L24.7087074,25.4588837" id="Fill-9" fill="#FFFFFE"></path>
            <path d="M24.5144653,16.077215 C24.5144653,16.077215 25.9871328,14.0850059 28.419624,14.1968625 L28.419624,15.8296122 L29.9949941,15.8296122 L29.9949941,26.256839 L25.7917744,26.256839 C25.7917744,26.256839 25.5990952,25.5928437 25.2385194,25.4541951 L29.1666745,25.4541951 L29.1666745,16.7680024 L28.4734313,16.7680024 L28.4734313,23.6292127 C28.4734313,23.6292127 26.2796122,23.5783079 25.0353467,25.4588837 L24.6269918,25.4588837" id="Fill-10" fill="#FFFFFE"></path>
            <path d="M24.0878026,16.7680024 C24.0878026,16.7680024 23.2157227,15.1093537 21.3887309,15.1093537 L21.3887309,22.9917861 C21.3887309,22.9917861 22.85604,23.1578966 23.8770388,23.9605405 L24.0996357,24.1538895 L24.0878026,16.7680024" id="Fill-11" fill="#C11E43"></path>
            <g id="Group-15" transform="translate(0.000000, 15.002186)">
                <path d="M24.9643478,1.76581669 C24.9643478,1.76581669 25.8190129,0.107168038 27.6444418,0.107168038 L27.6444418,7.98960047 C27.6444418,7.98960047 25.8612103,8.24881316 25.2309283,8.83354877 C25.1079083,8.94786134 24.9643478,9.16643948 24.9643478,9.16643948 L24.9643478,1.76581669" id="Fill-12" fill="#C11E43"></path>
                <polyline id="Fill-14" fill="#22387D" points="0 36.0446298 5.46690952 36.0446298 5.46690952 37.2196827 1.29070505 37.2196827 1.29070505 39.223725 4.99470035 39.223725 4.99470035 40.3990012 1.29070505 40.3990012 1.29070505 43.3896592 0 43.3896592 0 36.0446298"></polyline>
            </g>
            <path d="M10.376322,55.2332902 C10.2923737,54.4150176 9.80944771,53.7749119 8.97018801,53.7749119 C8.19366627,53.7749119 7.64800235,54.3730435 7.53257344,55.2332902 L10.376322,55.2332902 Z M6.27357227,55.6425382 L6.27357227,55.6215511 C6.27357227,54.0372503 7.39615746,52.736275 8.98068155,52.736275 C10.7433725,52.736275 11.6353231,54.1211986 11.6353231,55.7159929 C11.6353231,55.8316451 11.6248296,55.9468508 11.6143361,56.0727732 L7.54306698,56.0727732 C7.67948296,56.9752174 8.31958872,57.4789072 9.13808461,57.4789072 C9.75720329,57.4789072 10.1977086,57.2480494 10.6384371,56.8178143 L11.3834783,57.4789072 C10.8588014,58.1085194 10.1349706,58.5177673 9.11709753,58.5177673 C7.51158637,58.5177673 6.27357227,57.3529847 6.27357227,55.6425382 L6.27357227,55.6425382 Z" id="Fill-16" fill="#22387D"></path>
            <path d="M17.1127262,55.6320447 L17.1127262,55.6112808 C17.1127262,54.5409401 16.3571915,53.8378731 15.5074383,53.8378731 C14.6364747,53.8378731 13.9124207,54.5094595 13.9124207,55.6112808 L13.9124207,55.6320447 C13.9124207,56.7023854 14.6469683,57.4054524 15.5074383,57.4054524 C16.3571915,57.4054524 17.1127262,56.6918919 17.1127262,55.6320447 Z M12.6322092,55.6320447 L12.6322092,55.6112808 C12.6322092,53.7749119 13.8809401,52.736275 15.2031257,52.736275 C16.1158402,52.736275 16.6929847,53.1977673 17.0917391,53.7119506 L17.0917391,50.7320094 L18.3614571,50.7320094 L18.3614571,58.3918449 L17.0917391,58.3918449 L17.0917391,57.4684136 C16.6824912,58.0455582 16.1053467,58.5070505 15.2031257,58.5070505 C13.9019271,58.5070505 12.6322092,57.4684136 12.6322092,55.6320447 L12.6322092,55.6320447 Z" id="Fill-17" fill="#22387D"></path>
            <path d="M23.7444183,55.2332902 C23.66047,54.4150176 23.1777673,53.7749119 22.3382844,53.7749119 C21.5617626,53.7749119 21.016322,54.3730435 20.9008931,55.2332902 L23.7444183,55.2332902 Z M19.6416686,55.6425382 L19.6416686,55.6215511 C19.6416686,54.0372503 20.7644771,52.736275 22.3487779,52.736275 C24.1116921,52.736275 25.0034195,54.1211986 25.0034195,55.7159929 C25.0034195,55.8316451 24.992926,55.9468508 24.9824324,56.0727732 L20.9113866,56.0727732 C21.0475793,56.9752174 21.6879083,57.4789072 22.506181,57.4789072 C23.1252996,57.4789072 23.5660282,57.2480494 24.0067568,56.8178143 L24.7515746,57.4789072 C24.227121,58.1085194 23.503067,58.5177673 22.4851939,58.5177673 C20.879906,58.5177673 19.6416686,57.3529847 19.6416686,55.6425382 L19.6416686,55.6425382 Z" id="Fill-18" fill="#22387D"></path>
            <path d="M26.2838543,52.8514806 L27.553349,52.8514806 L27.553349,54.1002115 C27.8996357,53.2712221 28.5397415,52.7045711 29.5156404,52.7467685 L29.5156404,54.089718 L29.4421857,54.089718 C28.3298707,54.089718 27.553349,54.8135488 27.553349,56.2826439 L27.553349,58.3918449 L26.2838543,58.3918449 L26.2838543,52.8514806" id="Fill-19" fill="#22387D"></path>
            <path d="M33.7742303,56.0727732 C33.4489307,55.9468508 32.9977086,55.8526322 32.5045123,55.8526322 C31.7072268,55.8526322 31.2350176,56.1779318 31.2350176,56.712879 L31.2350176,56.733866 C31.2350176,57.2585429 31.7072268,57.5523619 32.3051351,57.5523619 C33.1446181,57.5523619 33.7742303,57.0801528 33.7742303,56.3875793 L33.7742303,56.0727732 Z M33.7427497,58.3918449 L33.7427497,57.709765 C33.3649824,58.1609871 32.7878378,58.5070505 31.9485781,58.5070505 C30.8992244,58.5070505 29.9757932,57.9091422 29.9757932,56.7968273 L29.9757932,56.7758402 C29.9757932,55.5480964 30.9307051,54.9606816 32.2211868,54.9606816 C32.8927732,54.9606816 33.3230082,55.0549001 33.7532432,55.1915394 L33.7532432,55.086604 C33.7532432,54.3205758 33.2707638,53.900611 32.3890834,53.900611 C31.770188,53.900611 31.3084724,54.0372503 30.8047826,54.247121 L30.4584959,53.2292479 C31.067121,52.956416 31.6652526,52.7675323 32.5676968,52.7675323 C34.2044653,52.7675323 35.0019741,53.6280024 35.0019741,55.1075911 L35.0019741,58.3918449 L33.7427497,58.3918449 L33.7427497,58.3918449 Z" id="Fill-20" fill="#22387D"></path>
            <polygon id="Fill-21" fill="#22387D" points="36.5864982 58.3918449 37.8562162 58.3918449 37.8562162 50.7320094 36.5864982 50.7320094"></polygon>
            <path d="M45.5475323,57.2165687 C47.089859,57.2165687 48.0972385,56.1779318 48.0972385,54.740094 L48.0972385,54.7191069 C48.0972385,53.2817156 47.089859,52.2218684 45.5475323,52.2218684 L44.0994242,52.2218684 L44.0994242,57.2165687 L45.5475323,57.2165687 Z M42.8087192,51.0468155 L45.5475323,51.0468155 C47.8558872,51.0468155 49.4509048,52.6311163 49.4509048,54.6983431 L49.4509048,54.7191069 C49.4509048,56.7863337 47.8558872,58.3918449 45.5475323,58.3918449 L42.8087192,58.3918449 L42.8087192,51.0468155 L42.8087192,51.0468155 Z" id="Fill-22" fill="#22387D"></path>
            <path d="M54.6661927,55.2332902 C54.5822444,54.4150176 54.0995417,53.7749119 53.2600588,53.7749119 C52.483537,53.7749119 51.9378731,54.3730435 51.8224442,55.2332902 L54.6661927,55.2332902 Z M50.563443,55.6425382 L50.563443,55.6215511 C50.563443,54.0372503 51.6860282,52.736275 53.2705523,52.736275 C55.0332432,52.736275 55.9251939,54.1211986 55.9251939,55.7159929 C55.9251939,55.8316451 55.9147004,55.9468508 55.9042068,56.0727732 L51.8329377,56.0727732 C51.9693537,56.9752174 52.6094595,57.4789072 53.4279553,57.4789072 C54.047074,57.4789072 54.4875793,57.2480494 54.9283079,56.8178143 L55.673349,57.4789072 C55.1486722,58.1085194 54.4248414,58.5177673 53.4069683,58.5177673 C51.8014571,58.5177673 50.563443,57.3529847 50.563443,55.6425382 L50.563443,55.6425382 Z" id="Fill-23" fill="#22387D"></path>
            <path d="M61.6439483,55.6320447 L61.6439483,55.6112808 C61.6439483,54.5409401 60.9198942,53.8378731 60.0594242,53.8378731 C59.1989542,53.8378731 58.4436428,54.5514336 58.4436428,55.6112808 L58.4436428,55.6320447 C58.4436428,56.7023854 59.1989542,57.4054524 60.0594242,57.4054524 C60.9303878,57.4054524 61.6439483,56.7233725 61.6439483,55.6320447 Z M57.2054054,52.8514806 L58.4751234,52.8514806 L58.4751234,53.7749119 C58.8843713,53.1977673 59.4615159,52.736275 60.3532432,52.736275 C61.6649354,52.736275 62.9346533,53.7749119 62.9346533,55.6112808 L62.9346533,55.6320447 C62.9346533,57.4684136 61.6754289,58.5070505 60.3532432,58.5070505 C59.4403055,58.5070505 58.863161,58.0455582 58.4751234,57.5313749 L58.4751234,60.0705875 L57.2054054,60.0705875 L57.2054054,52.8514806 L57.2054054,52.8514806 Z" id="Fill-24" fill="#22387D"></path>
            <path d="M68.5694595,55.6530317 L68.5694595,55.6320447 C68.5694595,54.656369 67.8663925,53.8483666 66.8695065,53.8483666 C65.8516334,53.8483666 65.2012573,54.6456522 65.2012573,55.6112808 L65.2012573,55.6320447 C65.2012573,56.5976733 65.9043243,57.4159459 66.8904935,57.4159459 C67.9188602,57.4159459 68.5694595,56.6079436 68.5694595,55.6530317 Z M63.9315394,55.6530317 L63.9315394,55.6320447 C63.9315394,54.0477438 65.1907638,52.736275 66.8904935,52.736275 C68.5904465,52.736275 69.8391774,54.0267568 69.8391774,55.6112808 L69.8391774,55.6320447 C69.8391774,57.2060752 68.579953,58.5177673 66.8695065,58.5177673 C65.180047,58.5177673 63.9315394,57.2270623 63.9315394,55.6530317 L63.9315394,55.6530317 Z" id="Fill-25" fill="#22387D"></path>
            <path d="M70.6786604,57.6677908 L71.2453114,56.8073208 C71.843443,57.2585429 72.493819,57.4894007 73.06047,57.4894007 C73.606134,57.4894007 73.9209401,57.2585429 73.9209401,56.8912691 L73.9209401,56.870282 C73.9209401,56.440047 73.333302,56.2931375 72.6827027,56.0939835 C71.8644301,55.8631257 70.9514924,55.5273325 70.9514924,54.4674853 L70.9514924,54.4464982 C70.9514924,53.3971445 71.8222327,52.7570388 72.9242773,52.7570388 C73.6166275,52.7570388 74.3721622,52.9983901 74.9598002,53.386651 L74.4561105,54.2890952 C73.9209401,53.9637955 73.3542891,53.7644183 72.8925734,53.7644183 C72.3993772,53.7644183 72.116275,53.9952761 72.116275,54.3205758 L72.116275,54.3415629 C72.116275,54.740094 72.7144066,54.9079906 73.3647826,55.1180846 C74.172785,55.3699295 75.0857227,55.73698 75.0857227,56.733866 L75.0857227,56.7548531 C75.0857227,57.9194125 74.1832785,58.496557 73.0289894,58.496557 C72.2419741,58.496557 71.3712338,58.2134548 70.6786604,57.6677908" id="Fill-26" fill="#22387D"></path>
            <path d="M76.4498825,58.3918449 L77.7196005,58.3918449 L77.7196005,52.8514806 L76.4498825,52.8514806 L76.4498825,58.3918449 Z M76.3974148,52.0017274 L77.7615746,52.0017274 L77.7615746,50.7947474 L76.3974148,50.7947474 L76.3974148,52.0017274 Z" id="Fill-27" fill="#22387D"></path>
            <path d="M79.6396945,56.8597885 L79.6396945,53.9428085 L78.9368508,53.9428085 L78.9368508,52.8514806 L79.6396945,52.8514806 L79.6396945,51.330141 L80.9094125,51.330141 L80.9094125,52.8514806 L82.3992714,52.8514806 L82.3992714,53.9428085 L80.9094125,53.9428085 L80.9094125,56.6604113 C80.9094125,57.1536075 81.1612573,57.3529847 81.5914924,57.3529847 C81.8748179,57.3529847 82.1266627,57.2900235 82.3785076,57.1641011 L82.3785076,58.2029612 C82.0637015,58.3813514 81.7069213,58.4862867 81.2347121,58.4862867 C80.3007873,58.4862867 79.6396945,58.0770388 79.6396945,56.8597885" id="Fill-28" fill="#22387D"></path>
            <path d="M87.8543478,55.6530317 L87.8543478,55.6320447 C87.8543478,54.656369 87.1512808,53.8483666 86.1543948,53.8483666 C85.1365217,53.8483666 84.4861457,54.6456522 84.4861457,55.6112808 L84.4861457,55.6320447 C84.4861457,56.5976733 85.1892127,57.4159459 86.1753819,57.4159459 C87.2037485,57.4159459 87.8543478,56.6079436 87.8543478,55.6530317 Z M83.2164277,55.6530317 L83.2164277,55.6320447 C83.2164277,54.0477438 84.4756522,52.736275 86.1753819,52.736275 C87.8753349,52.736275 89.1240658,54.0267568 89.1240658,55.6112808 L89.1240658,55.6320447 C89.1240658,57.2060752 87.8648414,58.5177673 86.1543948,58.5177673 C84.4649354,58.5177673 83.2164277,57.2270623 83.2164277,55.6530317 L83.2164277,55.6530317 Z" id="Fill-29" fill="#22387D"></path>
            <g id="Group-33" transform="translate(90.199765, 52.734266)">
                <mask id="mask-2" fill="white">
                    <use xlink:href="#path-1"></use>
                </mask>
                <g id="Clip-31"></g>
                <path d="M0.215005875,0.117215041 L1.48450059,0.117215041 L1.48450059,1.36594595 C1.83078731,0.536956522 2.47089307,-0.0296944771 3.44679201,0.0125029377 L3.44679201,1.35545241 L3.37333725,1.35545241 C2.26102233,1.35545241 1.48450059,2.0792832 1.48450059,3.54837838 L1.48450059,5.65757932 L0.215005875,5.65757932 L0.215005875,0.117215041" id="Fill-30" fill="#22387D" mask="url(#mask-2)"></path>
                <path d="M4.37022327,7.0320094 L4.80045828,6.08759107 C5.0313161,6.21373678 5.28316099,6.29768508 5.54549941,6.29768508 C5.90227967,6.29768508 6.12264395,6.14028202 6.33229142,5.65757932 L4.02393655,0.117215041 L5.37760282,0.117215041 L6.95141011,4.23045828 L8.38902468,0.117215041 L9.71121034,0.117215041 L7.50756757,5.81498237 C7.06683901,6.9480611 6.57364277,7.36780259 5.68191539,7.36780259 C5.14674501,7.36780259 4.75826087,7.24188014 4.37022327,7.0320094" id="Fill-32" fill="#22387D" mask="url(#mask-2)"></path>
            </g>
            <polyline id="Fill-34" fill="#22387D" points="104.297051 51.0468155 105.587756 51.0468155 105.587756 57.2165687 109.449154 57.2165687 109.449154 58.3918449 104.297051 58.3918449 104.297051 51.0468155"></polyline>
            <path d="M110.718649,58.3918449 L111.988367,58.3918449 L111.988367,52.8514806 L110.718649,52.8514806 L110.718649,58.3918449 Z M110.666181,52.0017274 L112.030118,52.0017274 L112.030118,50.7947474 L110.666181,50.7947474 L110.666181,52.0017274 Z" id="Fill-35" fill="#22387D"></path>
            <path d="M118.084888,55.6320447 L118.084888,55.6112808 C118.084888,54.5409401 117.360611,53.8378731 116.500364,53.8378731 C115.639894,53.8378731 114.884583,54.5514336 114.884583,55.6112808 L114.884583,55.6320447 C114.884583,56.7023854 115.639894,57.4054524 116.500364,57.4054524 C117.371105,57.4054524 118.084888,56.7233725 118.084888,55.6320447 Z M114.91584,57.5313749 L114.91584,58.3918449 L113.646345,58.3918449 L113.646345,50.7320094 L114.91584,50.7320094 L114.91584,53.7749119 C115.325088,53.1977673 115.902233,52.736275 116.794183,52.736275 C118.105652,52.736275 119.37537,53.7749119 119.37537,55.6112808 L119.37537,55.6320447 C119.37537,57.4684136 118.116146,58.5070505 116.794183,58.5070505 C115.881022,58.5070505 115.304101,58.0455582 114.91584,57.5313749 L114.91584,57.5313749 Z" id="Fill-36" fill="#22387D"></path>
            <path d="M120.676569,52.8514806 L121.946287,52.8514806 L121.946287,54.1002115 C122.292573,53.2712221 122.932456,52.7045711 123.908355,52.7467685 L123.908355,54.089718 L123.8349,54.089718 C122.722808,54.089718 121.946287,54.8135488 121.946287,56.2826439 L121.946287,58.3918449 L120.676569,58.3918449 L120.676569,52.8514806" id="Fill-37" fill="#22387D"></path>
            <path d="M128.167168,56.0727732 C127.841868,55.9468508 127.390646,55.8526322 126.89745,55.8526322 C126.100165,55.8526322 125.627955,56.1779318 125.627955,56.712879 L125.627955,56.733866 C125.627955,57.2585429 126.100165,57.5523619 126.698296,57.5523619 C127.537556,57.5523619 128.167168,57.0801528 128.167168,56.3875793 L128.167168,56.0727732 Z M128.135687,58.3918449 L128.135687,57.709765 C127.75792,58.1609871 127.180999,58.5070505 126.341516,58.5070505 C125.292162,58.5070505 124.368731,57.9091422 124.368731,56.7968273 L124.368731,56.7758402 C124.368731,55.5480964 125.32342,54.9606816 126.614348,54.9606816 C127.285711,54.9606816 127.715946,55.0549001 128.146181,55.1915394 L128.146181,55.086604 C128.146181,54.3205758 127.663478,53.900611 126.782244,53.900611 C126.162902,53.900611 125.70141,54.0372503 125.19772,54.247121 L124.851434,53.2292479 C125.460059,52.956416 126.057967,52.7675323 126.960411,52.7675323 C128.59718,52.7675323 129.394912,53.6280024 129.394912,55.1075911 L129.394912,58.3918449 L128.135687,58.3918449 L128.135687,58.3918449 Z" id="Fill-38" fill="#22387D"></path>
            <g id="Group-42" transform="translate(130.834313, 52.734266)">
                <mask id="mask-4" fill="white">
                    <use xlink:href="#path-3"></use>
                </mask>
                <g id="Clip-40"></g>
                <path d="M0.0714453584,0.117215041 L1.3413866,0.117215041 L1.3413866,1.36594595 C1.68767333,0.536956522 2.32755582,-0.0296944771 3.30345476,0.0125029377 L3.30345476,1.35545241 L3.23,1.35545241 C2.11768508,1.35545241 1.3413866,2.0792832 1.3413866,3.54837838 L1.3413866,5.65757932 L0.0714453584,5.65757932 L0.0714453584,0.117215041" id="Fill-39" fill="#22387D" mask="url(#mask-4)"></path>
                <path d="M4.22688602,7.0320094 L4.65712103,6.08759107 C4.88797885,6.21373678 5.13982374,6.29768508 5.4019389,6.29768508 C5.75894242,6.29768508 5.97908343,6.14028202 6.18917744,5.65757932 L3.88059929,0.117215041 L5.2340423,0.117215041 L6.80807286,4.23045828 L8.24568743,0.117215041 L9.56787309,0.117215041 L7.36423032,5.81498237 C6.92350176,6.9480611 6.43052879,7.36780259 5.53857814,7.36780259 C5.00340776,7.36780259 4.61514689,7.24188014 4.22688602,7.0320094" id="Fill-41" fill="#22387D" mask="url(#mask-4)"></path>
            </g>
            <path d="M147.579318,54.8662397 C148.554994,54.8662397 149.163619,54.3205758 149.163619,53.5545476 L149.163619,53.5335605 C149.163619,52.6730905 148.544501,52.2218684 147.579318,52.2218684 L146.078743,52.2218684 L146.078743,54.8662397 L147.579318,54.8662397 Z M144.788038,51.0468155 L147.684254,51.0468155 C149.394477,51.0468155 150.475311,52.0224912 150.475311,53.5020799 L150.475311,53.523067 C150.475311,55.1705523 149.153126,56.0307991 147.537344,56.0307991 L146.078743,56.0307991 L146.078743,58.3918449 L144.788038,58.3918449 L144.788038,51.0468155 L144.788038,51.0468155 Z" id="Fill-43" fill="#22387D"></path>
            <path d="M151.650364,52.8514806 L152.920306,52.8514806 L152.920306,54.1002115 C153.266592,53.2712221 153.906475,52.7045711 154.882374,52.7467685 L154.882374,54.089718 L154.808919,54.089718 C153.696604,54.089718 152.920306,54.8135488 152.920306,56.2826439 L152.920306,58.3918449 L151.650364,58.3918449 L151.650364,52.8514806" id="Fill-44" fill="#22387D"></path>
            <g id="Group-48" transform="translate(155.393655, 52.734266)">
                <mask id="mask-6" fill="white">
                    <use xlink:href="#path-5"></use>
                </mask>
                <g id="Clip-46"></g>
                <path d="M4.73437133,2.91876616 L4.73437133,2.89777908 C4.73437133,1.92210341 4.03152761,1.11410106 3.0346416,1.11410106 C2.01676851,1.11410106 1.36616921,1.9113866 1.36616921,2.87701528 L1.36616921,2.89777908 C1.36616921,3.86340776 2.06923619,4.68168038 3.05562867,4.68168038 C4.08377203,4.68168038 4.73437133,3.87367803 4.73437133,2.91876616 Z M0.0966745006,2.91876616 L0.0966745006,2.89777908 C0.0966745006,1.31347826 1.35567568,0.00200940071 3.05562867,0.00200940071 C4.7553584,0.00200940071 6.00408931,1.29249119 6.00408931,2.87701528 L6.00408931,2.89777908 C6.00408931,4.47180964 4.74486486,5.78350176 3.0346416,5.78350176 C1.34518214,5.78350176 0.0966745006,4.49279671 0.0966745006,2.91876616 L0.0966745006,2.91876616 Z" id="Fill-45" fill="#22387D" mask="url(#mask-6)"></path>
                <path d="M11.4922092,2.62517039 L11.4922092,2.60418331 C11.4922092,1.69124559 10.747168,1.07212691 9.86571093,1.07212691 C8.98425382,1.07212691 8.29168038,1.68075206 8.29168038,2.59368978 L8.29168038,2.61467685 C8.29168038,3.52761457 8.99474736,4.14650999 9.86571093,4.14650999 C10.747168,4.14650999 11.4922092,3.51689777 11.4922092,2.62517039 Z M7.28430082,6.69621622 L7.75650999,5.74152761 C8.34414806,6.10857814 8.97376028,6.32916569 9.72907168,6.32916569 C10.8623737,6.32916569 11.4814924,5.74152761 11.4814924,4.62921269 L11.4814924,4.19897767 C11.0197767,4.79710928 10.4426322,5.21685076 9.52991774,5.21685076 C8.22871915,5.21685076 7.01146886,4.25144536 7.01146886,2.62517039 L7.01146886,2.60418331 C7.01146886,0.967191539 8.23921269,0.00200940071 9.52991774,0.00200940071 C10.4636193,0.00200940071 11.0407638,0.432021152 11.4709988,0.946204465 L11.4709988,0.117215041 L12.7404935,0.117215041 L12.7404935,4.52427732 C12.7404935,5.45820212 12.4993655,6.15077556 12.0376498,6.61226792 C11.53396,7.1159577 10.7576616,7.35730905 9.76077556,7.35730905 C8.84783784,7.35730905 7.99786134,7.1266745 7.28430082,6.69621622 L7.28430082,6.69621622 Z" id="Fill-47" fill="#22387D" mask="url(#mask-6)"></path>
            </g>
            <path d="M169.718895,52.8514806 L170.988837,52.8514806 L170.988837,54.1002115 C171.3349,53.2712221 171.975006,52.7045711 172.950905,52.7467685 L172.950905,54.089718 L172.87745,54.089718 C171.765135,54.089718 170.988837,54.8135488 170.988837,56.2826439 L170.988837,58.3918449 L169.718895,58.3918449 L169.718895,52.8514806" id="Fill-49" fill="#22387D"></path>
            <path d="M177.209495,56.0727732 C176.884195,55.9468508 176.432973,55.8526322 175.939777,55.8526322 C175.142491,55.8526322 174.670282,56.1779318 174.670282,56.712879 L174.670282,56.733866 C174.670282,57.2585429 175.142491,57.5523619 175.740623,57.5523619 C176.580106,57.5523619 177.209495,57.0801528 177.209495,56.3875793 L177.209495,56.0727732 Z M177.178014,58.3918449 L177.178014,57.709765 C176.800247,58.1609871 176.223325,58.5070505 175.383843,58.5070505 C174.334489,58.5070505 173.411058,57.9091422 173.411058,56.7968273 L173.411058,56.7758402 C173.411058,55.5480964 174.365969,54.9606816 175.656675,54.9606816 C176.328261,54.9606816 176.758273,55.0549001 177.188508,55.1915394 L177.188508,55.086604 C177.188508,54.3205758 176.705805,53.900611 175.824571,53.900611 C175.205229,53.900611 174.743737,54.0372503 174.240047,54.247121 L173.89376,53.2292479 C174.502385,52.956416 175.100517,52.7675323 176.002961,52.7675323 C177.63973,52.7675323 178.437239,53.6280024 178.437239,55.1075911 L178.437239,58.3918449 L177.178014,58.3918449 L177.178014,58.3918449 Z" id="Fill-50" fill="#22387D"></path>
            <path d="M179.948308,52.8514806 L181.218026,52.8514806 L181.218026,53.6909636 C181.574806,53.1977673 182.057509,52.736275 182.907262,52.736275 C183.704771,52.736275 184.260928,53.1243126 184.554524,53.7119506 C185.005969,53.1243126 185.593608,52.736275 186.432867,52.736275 C187.639624,52.736275 188.374172,53.5020799 188.374172,54.8557462 L188.374172,58.3918449 L187.104454,58.3918449 L187.104454,55.2437838 C187.104454,54.3625499 186.695206,53.8903408 185.981645,53.8903408 C185.289072,53.8903408 184.795875,54.3730435 184.795875,55.2649941 L184.795875,58.3918449 L183.526381,58.3918449 L183.526381,55.2332902 C183.526381,54.3730435 183.106639,53.8903408 182.403796,53.8903408 C181.700505,53.8903408 181.218026,54.4150176 181.218026,55.2754877 L181.218026,58.3918449 L179.948308,58.3918449 L179.948308,52.8514806" id="Fill-51" fill="#22387D"></path>
            <path d="M62.6312338,35.0950764 C62.6312338,38.1147591 62.0942773,43.0132315 65.44953,44.2883079 L65.44953,44.4894712 L52.7670858,44.4894712 L52.7670858,44.2883079 C56.1893184,43.0804348 55.7865452,38.1147591 55.7865452,35.0950764 L55.7865452,9.79694477 C55.7865452,6.71028202 56.1893184,1.81180964 52.7670858,0.536733255 L52.7670858,0.335346651 L74.2402115,0.335346651 C75.3808813,0.335346651 76.5215511,0.469753231 77.3940776,-3.17281128e-15 L77.5952409,-3.17281128e-15 L77.5952409,7.7839718 L77.3940776,7.7839718 C75.313678,5.43542891 72.5623619,5.16706228 69.4756992,5.16706228 C67.1271563,5.16706228 64.7786134,5.2340423 62.6312338,5.63659224 L62.6312338,18.1178731 L70.6835723,18.1178731 C71.6900588,18.1178731 72.7637485,18.1178731 73.5690717,17.7153231 L73.7704583,17.7153231 L73.7704583,24.8281551 L73.5690717,24.8281551 C72.4953819,22.8151821 69.6770858,22.9493655 67.5969095,22.9493655 L62.6312338,22.9493655 L62.6312338,35.0950764" id="Fill-52" fill="#22387D"></path>
            <path d="M90.8148649,39.1884489 C92.4252879,39.5237955 94.0359342,39.6579788 95.7133373,39.6579788 C105.711892,39.6579788 114.636533,34.4239365 114.636533,22.8151821 C114.636533,11.0720212 108.060435,5.16706228 96.8542303,5.16706228 C94.8412573,5.16706228 92.8280611,5.43542891 90.8148649,5.90518214 L90.8148649,39.1884489 Z M83.9703995,9.52857814 C83.9703995,6.44191539 84.4401528,1.54344301 81.0176968,0.536733255 L81.0176968,0.335346651 L97.4581669,0.335346651 C112.757521,0.335346651 122.286322,8.65627497 122.286322,22.009859 C122.286322,35.229483 112.153807,44.4894712 97.1228202,44.4894712 L81.0176968,44.4894712 L81.0176968,44.2883079 C84.3729495,42.006745 83.9703995,38.7856757 83.9703995,34.8267098 L83.9703995,9.52857814 L83.9703995,9.52857814 Z" id="Fill-53" fill="#22387D"></path>
            <path d="M142.082045,39.6579788 C146.644947,39.9265687 150.604136,38.3831257 153.959389,35.5646063 L154.160776,35.5646063 L150.67134,44.4894712 L123.091645,44.4894712 L123.091645,44.2883079 C126.513878,43.0804348 126.111551,38.1147591 126.111551,35.0950764 L126.111551,9.79694477 C126.111551,6.71028202 126.513878,1.81180964 123.091645,0.536733255 L123.091645,0.335346651 L135.908719,0.335346651 L135.908719,0.536733255 C132.486263,1.81180964 132.956016,6.77726204 132.956016,9.79694477 L132.956016,39.0540423 L142.082045,39.6579788" id="Fill-54" fill="#22387D"></path>
            <path d="M174.425805,0.335346651 C183.149283,0.335346651 189.792585,4.56290247 189.792585,12.0785076 C189.792585,19.7954994 182.61255,24.6939718 175.029741,24.6939718 C173.352338,24.6939718 171.674712,24.4928085 170.131492,23.7546886 C175.902045,23.4191187 182.14302,19.8624794 182.14302,13.420564 C182.14302,7.51560517 177.982444,5.16706228 172.614219,5.16706228 C171.003572,5.16706228 169.460353,5.30124559 167.91691,5.56961222 L167.91691,35.8331962 C167.91691,39.5909988 167.849706,42.2748884 171.406345,44.2883079 L171.406345,44.4894712 L158.052761,44.4894712 L158.052761,44.2883079 C161.474994,43.0804348 161.072444,38.1147591 161.072444,35.0950764 L161.072444,9.79694477 C161.072444,6.77726204 161.474994,1.87901293 158.119741,0.536733255 L158.119741,0.335346651 L174.425805,0.335346651" id="Fill-55" fill="#22387D"></path>
        </g>
    </g>
</svg>